<svg xmlns="http://www.w3.org/2000/svg" width="171" height="34" viewBox="0 0 171 34" fill="none">
  <path d="M150.566 33.4357C150.035 33.4357 149.567 33.2485 149.162 32.874C148.787 32.4995 148.6 32.047 148.6 31.5164V3.5232C148.6 1.33867 149.848 0.246399 152.345 0.246399V30.1121H167.324C168.323 30.1121 169.072 30.4086 169.571 31.0015C170.102 31.5632 170.367 32.3746 170.367 33.4357H150.566Z" fill="black"/>
  <path d="M118.46 33.857C117.68 33.6386 117.056 33.2641 116.588 32.7335C116.151 32.1718 115.932 31.5164 115.932 30.7675C115.932 30.3618 116.042 29.8624 116.26 29.2695L127.635 1.41669C127.947 0.636495 128.556 0.246399 129.461 0.246399C130.303 0.246399 130.896 0.636495 131.24 1.41669L142.568 29.2695C142.787 29.7376 142.896 30.2369 142.896 30.7675C142.896 31.4852 142.677 32.125 142.24 32.6867C141.803 33.2485 141.195 33.6386 140.415 33.857L136.389 23.7457H122.533L118.46 33.857ZM135.172 20.4689L128.806 4.31899L128.525 4.41262L129.227 6.28507L123.703 20.4689H135.172Z" fill="black"/>
  <path d="M90.4505 33.4358C89.92 33.4358 89.4675 33.2641 89.093 32.9209C88.7185 32.5776 88.5312 32.1563 88.5312 31.657V2.44662C88.5312 1.9473 88.7185 1.526 89.093 1.18271C89.4675 0.839428 89.92 0.667786 90.4505 0.667786H103.651C106.242 0.667786 108.301 1.47918 109.83 3.10198C111.391 4.69357 112.171 6.8469 112.171 9.56196C112.171 11.0599 111.765 12.4799 110.954 13.8218C110.143 15.1325 109.113 16.0844 107.864 16.6773V16.7709C109.674 17.3014 111.063 18.2221 112.031 19.5328C113.029 20.8123 113.529 22.4039 113.529 24.3076C113.529 26.0864 113.154 27.678 112.405 29.0823C111.687 30.4555 110.673 31.5321 109.362 32.3123C108.052 33.0613 106.554 33.4358 104.868 33.4358H90.4505ZM103.558 15.4134C104.931 15.4134 106.101 14.8517 107.069 13.7282C108.067 12.6047 108.567 11.2316 108.567 9.60877C108.567 7.79873 108.114 6.39438 107.209 5.39574C106.335 4.3971 105.118 3.89777 103.558 3.89777H92.2294V15.4134H103.558ZM104.494 30.2058C106.21 30.2058 107.537 29.6909 108.473 28.661C109.44 27.6312 109.924 26.1956 109.924 24.3544C109.924 22.5443 109.44 21.14 108.473 20.1413C107.537 19.1427 106.21 18.6434 104.494 18.6434H92.2294V30.2058H104.494Z" fill="black"/>
  <path d="M69.4851 33.857C66.8948 33.857 64.5855 33.3421 62.557 32.3122C60.5597 31.2824 58.9837 29.878 57.829 28.0992C56.7055 26.2892 56.1438 24.2763 56.1438 22.0605V11.9493C56.1438 9.73352 56.7055 7.73623 57.829 5.9574C58.9525 4.17856 60.5129 2.78982 62.5102 1.79118C64.5387 0.761325 66.8636 0.246399 69.4851 0.246399C72.1065 0.246399 74.4315 0.761325 76.46 1.79118C78.4885 2.78982 80.0644 4.17856 81.1879 5.9574C82.3114 7.70502 82.8731 9.70231 82.8731 11.9493V22.0605C82.8731 24.3075 82.3114 26.3204 81.1879 28.0992C80.0644 29.878 78.4729 31.2824 76.4132 32.3122C74.3847 33.3421 72.0753 33.857 69.4851 33.857ZM69.4851 30.5802C72.5746 30.5802 74.962 29.8156 76.6472 28.2864C78.3636 26.7261 79.2218 24.6352 79.2218 22.0137V11.9961C79.2218 9.40584 78.3792 7.34613 76.694 5.81696C75.0088 4.28779 72.6058 3.5232 69.4851 3.5232C66.4267 3.5232 64.0393 4.28779 62.3229 5.81696C60.6377 7.34613 59.7951 9.40584 59.7951 11.9961V22.0137C59.7951 24.6352 60.6377 26.7261 62.3229 28.2864C64.0393 29.8156 66.4267 30.5802 69.4851 30.5802Z" fill="black"/>
  <path d="M35.5945 33.4357C35.064 33.4357 34.5959 33.2485 34.1902 32.874C33.8157 32.4995 33.6284 32.047 33.6284 31.5164V3.5232C33.6284 1.33867 34.8767 0.246399 37.3733 0.246399V30.1121H52.353C53.3516 30.1121 54.1006 30.4086 54.5999 31.0015C55.1305 31.5632 55.3957 32.3746 55.3957 33.4357H35.5945Z" fill="black"/>
  <path d="M14.1827 33.857C11.5925 33.857 9.26755 33.3889 7.20784 32.4527C5.17935 31.4852 3.60336 30.1433 2.47989 28.4269C1.35642 26.7105 0.794678 24.76 0.794678 22.5755V11.4343C0.794678 9.2498 1.35642 7.31493 2.47989 5.62971C3.60336 3.9445 5.16374 2.63378 7.16103 1.69755C9.15832 0.730117 11.4365 0.246399 13.9955 0.246399C16.5545 0.246399 18.8327 0.667702 20.83 1.51031C22.8273 2.32171 24.3876 3.46079 25.5111 4.92754C26.6346 6.3943 27.1963 8.06391 27.1963 9.93637C27.1963 10.779 26.9155 11.4499 26.3537 11.9493C25.792 12.4174 25.0586 12.6514 24.1536 12.6514C23.8727 12.6514 23.6543 12.6358 23.4982 12.6046C23.5606 12.2925 23.5918 11.762 23.5918 11.013C23.5918 9.54627 23.1861 8.25115 22.3748 7.12768C21.5634 5.973 20.4243 5.08358 18.9575 4.45943C17.522 3.83528 15.868 3.5232 13.9955 3.5232C12.1543 3.5232 10.5159 3.86648 9.0803 4.55305C7.64475 5.20841 6.52128 6.14464 5.70988 7.36174C4.92969 8.54763 4.53959 9.90516 4.53959 11.4343V22.5755C4.53959 24.1358 4.94529 25.5246 5.75669 26.7417C6.56809 27.9588 7.70717 28.9106 9.17393 29.5972C10.6407 30.2525 12.3103 30.5802 14.1827 30.5802C16.024 30.5802 17.6624 30.2681 19.0979 29.644C20.5647 28.9886 21.7038 28.0836 22.5152 26.9289C23.3266 25.7742 23.7323 24.4635 23.7323 22.9968V19.954H17.1319C16.2581 19.954 15.5559 19.6575 15.0254 19.0646C14.4948 18.4717 14.2296 17.7071 14.2296 16.7708H25.6515C26.1821 16.7708 26.6034 16.9425 26.9155 17.2858C27.2587 17.5978 27.4304 18.0191 27.4304 18.5497V22.9968C27.4304 25.1189 26.8686 27.0069 25.7452 28.6609C24.6217 30.2837 23.0613 31.5632 21.064 32.4995C19.0667 33.4045 16.773 33.857 14.1827 33.857Z" fill="black"/>
</svg>