<svg xmlns="http://www.w3.org/2000/svg" width="16" height="16" viewBox="0 0 16 16" fill="#0D0D0D">
  <path d="M13 13V11C13 10.4477 13.4477 10 14 10C14.5523 10 15 10.4477 15 11V13C15 14.1046 14.1046 15 13 15H3C1.89543 15 1 14.1046 1 13V3C1 1.89543 1.89543 1 3 1H5C5.55228 1 6 1.44772 6 2C6 2.55228 5.55228 3 5 3H3V13H13Z" fill="inherit"/>
  <path fill-rule="evenodd" clip-rule="evenodd" d="M11.5853 3H8.99955C8.44727 3 7.99955 2.55228 7.99955 2C7.99955 1.44772 8.44727 1 8.99955 1H13.9995C14.2757 1 14.5257 1.11193 14.7066 1.29289C14.8876 1.47386 14.9995 1.72386 14.9995 2V7C14.9995 7.55228 14.5518 8 13.9995 8C13.4472 8 12.9995 7.55228 12.9995 7V4.41421L6.75691 10.6569C6.36639 11.0474 5.73322 11.0474 5.3427 10.6569C4.95217 10.2663 4.95217 9.63316 5.3427 9.24264L11.5853 3Z" fill="inherit"/>
</svg>