<svg xmlns="http://www.w3.org/2000/svg" width="20" height="21" viewBox="0 0 20 21" fill="#ABA8A1">
  <path d="M8.3335 16.3333C8.3335 17.25 9.0835 18 10.0002 18C10.9168 18 11.6668 17.25 11.6668 16.3333C11.6668 15.4167 10.9168 14.6667 10.0002 14.6667C9.0835 14.6667 8.3335 15.4167 8.3335 16.3333Z" fill="inherit"/>
  <path d="M8.3335 4.66667C8.3335 5.58333 9.0835 6.33333 10.0002 6.33333C10.9168 6.33333 11.6668 5.58333 11.6668 4.66667C11.6668 3.75 10.9168 3 10.0002 3C9.0835 3 8.3335 3.75 8.3335 4.66667Z" fill="inherit"/>
  <path d="M8.3335 10.5C8.3335 11.4167 9.0835 12.1667 10.0002 12.1667C10.9168 12.1667 11.6668 11.4167 11.6668 10.5C11.6668 9.58333 10.9168 8.83333 10.0002 8.83333C9.0835 8.83333 8.3335 9.58333 8.3335 10.5Z" fill="inherit"/>
</svg>