<svg xmlns="http://www.w3.org/2000/svg" width="10" height="8" viewBox="0 0 10 8" fill="white">
  <path d="M3.33331 6.31666L1.40553 4.38889C1.30165 4.28501 1.16076 4.22665 1.01386 4.22665C0.866958 4.22665 0.726071 4.28501 0.622195 4.38889C0.518318 4.49276 0.459961 4.63365 0.459961 4.78055C0.459961 4.85329 0.474288 4.92532 0.502124 4.99252C0.52996 5.05972 0.57076 5.12078 0.622195 5.17222L2.94442 7.49444C3.16108 7.71111 3.51108 7.71111 3.72775 7.49444L9.60553 1.61666C9.7094 1.51279 9.76776 1.3719 9.76776 1.225C9.76776 1.07809 9.7094 0.937207 9.60553 0.833331C9.50165 0.729454 9.36076 0.671097 9.21386 0.671097C9.06696 0.671097 8.92607 0.729454 8.82219 0.833331L3.33331 6.31666Z" fill="inherit"/>
</svg>