<svg xmlns="http://www.w3.org/2000/svg" width="16" height="16" viewBox="0 0 16 16" fill="#0D0D0D">
  <path fill-rule="evenodd" clip-rule="evenodd" d="M6 1H2C1.44772 1 1 1.44772 1 2V6C1 6.55228 1.44772 7 2 7H6C6.55228 7 7 6.55228 7 6V2C7 1.44772 6.55228 1 6 1ZM3 5V3H5V5H3Z" fill="inherit"/>
  <path fill-rule="evenodd" clip-rule="evenodd" d="M6 9H2C1.44772 9 1 9.44772 1 10V14C1 14.5523 1.44772 15 2 15H6C6.55228 15 7 14.5523 7 14V10C7 9.44772 6.55228 9 6 9ZM3 13V11H5V13H3Z" fill="inherit"/>
  <path fill-rule="evenodd" clip-rule="evenodd" d="M14 1H10C9.44772 1 9 1.44772 9 2V6C9 6.55228 9.44772 7 10 7H14C14.5523 7 15 6.55228 15 6V2C15 1.44772 14.5523 1 14 1ZM11 5V3H13V5H11Z" fill="inherit"/>
  <path d="M10.4998 8.80078H9.4998C9.1132 8.80078 8.7998 9.11418 8.7998 9.50078V10.5008C8.7998 10.8874 9.1132 11.2008 9.4998 11.2008H10.4998C10.8864 11.2008 11.1998 10.8874 11.1998 10.5008V9.50078C11.1998 9.11418 10.8864 8.80078 10.4998 8.80078Z" fill="inherit"/>
  <path d="M14.4998 8.80078H13.4998C13.1132 8.80078 12.7998 9.11418 12.7998 9.50078V10.5008C12.7998 10.8874 13.1132 11.2008 13.4998 11.2008H14.4998C14.8864 11.2008 15.1998 10.8874 15.1998 10.5008V9.50078C15.1998 9.11418 14.8864 8.80078 14.4998 8.80078Z" fill="inherit"/>
  <path d="M14.4998 12.8008H13.4998C13.1132 12.8008 12.7998 13.1142 12.7998 13.5008V14.5008C12.7998 14.8874 13.1132 15.2008 13.4998 15.2008H14.4998C14.8864 15.2008 15.1998 14.8874 15.1998 14.5008V13.5008C15.1998 13.1142 14.8864 12.8008 14.4998 12.8008Z" fill="inherit"/>
  <path d="M10.4998 12.8008H9.4998C9.1132 12.8008 8.7998 13.1142 8.7998 13.5008V14.5008C8.7998 14.8874 9.1132 15.2008 9.4998 15.2008H10.4998C10.8864 15.2008 11.1998 14.8874 11.1998 14.5008V13.5008C11.1998 13.1142 10.8864 12.8008 10.4998 12.8008Z" fill="inherit"/>
  <path d="M12.4998 10.8008H11.4998C11.1132 10.8008 10.7998 11.1142 10.7998 11.5008V12.5008C10.7998 12.8874 11.1132 13.2008 11.4998 13.2008H12.4998C12.8864 13.2008 13.1998 12.8874 13.1998 12.5008V11.5008C13.1998 11.1142 12.8864 10.8008 12.4998 10.8008Z" fill="inherit"/>
</svg>