<svg width="41" height="46" viewBox="0 0 41 46" fill="none" xmlns="http://www.w3.org/2000/svg">
<path d="M22.5959 1V9M28.8459 1H16.3459" stroke="#0D0D0D" stroke-width="2" stroke-linecap="round" stroke-linejoin="round"/>
<path d="M39.2629 9.33295V26ZM10.0959 13.5H15.0549C15.4433 13.503 15.8248 13.3973 16.1561 13.1948C16.4875 12.9922 16.7556 12.701 16.9299 12.354L17.8459 10.479C18.0203 10.1319 18.2884 9.84067 18.6197 9.63813C18.9511 9.43559 19.3326 9.32988 19.7209 9.33295H25.4709C25.8593 9.32988 26.2408 9.43559 26.5721 9.63813C26.9035 9.84067 27.1716 10.1319 27.3459 10.479L28.2629 12.354C28.4373 12.701 28.7054 12.9922 29.0367 13.1948C29.3681 13.3973 29.7496 13.503 30.1379 13.5H39.2629V21.833H12.1799C11.9063 21.8328 11.6353 21.8866 11.3825 21.9912C11.1297 22.0958 10.8999 22.2493 10.7064 22.4427C10.5129 22.6361 10.3593 22.8658 10.2546 23.1186C10.1498 23.3714 10.0959 23.6423 10.0959 23.916V28.083C10.0959 28.6354 9.87648 29.1652 9.48584 29.5559C9.09521 29.9465 8.56539 30.166 8.01294 30.166H3.84594C3.29349 30.166 2.76367 29.9465 2.37304 29.5559C1.9824 29.1652 1.76294 28.6354 1.76294 28.083V21.833C1.76294 19.6229 2.64088 17.5034 4.20362 15.9406C5.76636 14.3779 7.88589 13.5 10.0959 13.5Z" fill="#0D0D0D"/>
<path d="M39.2629 9.33295V26M10.0959 13.5H15.0549C15.4433 13.503 15.8248 13.3973 16.1561 13.1948C16.4875 12.9922 16.7556 12.701 16.9299 12.354L17.8459 10.479C18.0203 10.1319 18.2884 9.84067 18.6197 9.63813C18.9511 9.43559 19.3326 9.32988 19.7209 9.33295H25.4709C25.8593 9.32988 26.2408 9.43559 26.5721 9.63813C26.9035 9.84067 27.1716 10.1319 27.3459 10.479L28.2629 12.354C28.4373 12.701 28.7054 12.9922 29.0367 13.1948C29.3681 13.3973 29.7496 13.503 30.1379 13.5H39.2629V21.833H12.1799C11.9063 21.8328 11.6353 21.8866 11.3825 21.9912C11.1297 22.0958 10.8999 22.2493 10.7064 22.4427C10.5129 22.6361 10.3593 22.8658 10.2546 23.1186C10.1498 23.3714 10.0959 23.6423 10.0959 23.916V28.083C10.0959 28.6354 9.87648 29.1652 9.48584 29.5559C9.09521 29.9465 8.56539 30.166 8.01294 30.166H3.84594C3.29349 30.166 2.76367 29.9465 2.37304 29.5559C1.9824 29.1652 1.76294 28.6354 1.76294 28.083V21.833C1.76294 19.6229 2.64088 17.5034 4.20362 15.9406C5.76636 14.3779 7.88589 13.5 10.0959 13.5Z" stroke="#0D0D0D" stroke-width="2" stroke-linecap="round" stroke-linejoin="round"/>
<path d="M5.82993 34C2.59197 36.7957 -1.49999 44 5.82993 46C9.20864 46 15.5438 41.129 5.82993 34Z" fill="#0D0D0D"/>
</svg>
