<svg xmlns="http://www.w3.org/2000/svg" width="17" height="17" viewBox="0 0 17 17" fill="none" stroke="#ABA8A1">
  <path d="M11.314 9.42353V12.2235C11.314 14.5569 10.3807 15.4902 8.04738 15.4902H5.24738C2.91405 15.4902 1.98071 14.5569 1.98071 12.2235V9.42353C1.98071 7.09019 2.91405 6.15686 5.24738 6.15686H8.04738C10.3807 6.15686 11.314 7.09019 11.314 9.42353Z" stroke="inherit" stroke-linecap="round" stroke-linejoin="round"/>
  <path d="M15.314 5.42353V8.22353C15.314 10.5569 14.3807 11.4902 12.0474 11.4902H11.314V9.42353C11.314 7.09019 10.3807 6.15686 8.04738 6.15686H5.98071V5.42353C5.98071 3.09019 6.91405 2.15686 9.24738 2.15686H12.0474C14.3807 2.15686 15.314 3.09019 15.314 5.42353Z" stroke="inherit" stroke-linecap="round" stroke-linejoin="round"/>
</svg>