<svg xmlns="http://www.w3.org/2000/svg" width="16" height="16" viewBox="0 0 16 16" fill="none" stroke="black">
  <path d="M14.9376 8.91148C14.7724 10.1712 14.2674 11.3621 13.4768 12.3566C12.6862 13.3511 11.6398 14.1117 10.4498 14.5567C9.25978 15.0017 7.9711 15.1143 6.72193 14.8826C5.47277 14.6508 4.31025 14.0834 3.35906 13.2412C2.40786 12.399 1.70387 11.3137 1.32259 10.1018C0.941314 8.88987 0.897125 7.59703 1.19477 6.3619C1.49241 5.12678 2.12065 3.99598 3.01212 3.09077C3.90359 2.18557 5.02466 1.5401 6.25508 1.22361C9.66598 0.348796 13.1967 2.10455 14.5002 5.37635" stroke="inherit" stroke-width="2" stroke-linecap="round" stroke-linejoin="round"/>
  <path d="M14.9991 1.00195V5.37602H10.625" stroke="inherit" stroke-width="2" stroke-linecap="round" stroke-linejoin="round"/>
</svg>