<svg xmlns="http://www.w3.org/2000/svg" width="93" height="93" viewBox="0 0 93 93" fill="none">
  <path fill-rule="evenodd" clip-rule="evenodd" d="M20.999 10.6686C20.999 16.324 25.5836 20.9086 31.239 20.9086H70.4924C71.4349 20.9086 72.199 21.6727 72.199 22.6153V61.5636V61.8686H72.2035C72.3648 67.3829 76.8857 71.8036 82.439 71.8036C87.9924 71.8036 92.5133 67.3829 92.6746 61.8686H92.679V61.5636V20.9086V7.25526C92.679 3.48499 89.6226 0.428589 85.8524 0.428589H72.199H31.239C25.5836 0.428589 20.999 5.01319 20.999 10.6686Z" fill="black"/>
  <path fill-rule="evenodd" clip-rule="evenodd" d="M72.199 82.0434C72.199 76.3881 67.6144 71.8034 61.959 71.8034H22.7056C21.7631 71.8034 20.999 71.0393 20.999 70.0968V31.1484V30.8434H20.9945C20.8332 25.3291 16.3123 20.9084 10.759 20.9084C5.20559 20.9084 0.684723 25.3291 0.523422 30.8434H0.518967V31.1484V71.8034V85.4568C0.518967 89.227 3.57537 92.2834 7.34563 92.2834H20.999H61.959C67.6144 92.2834 72.199 87.6988 72.199 82.0434Z" fill="black"/>
</svg>