<svg xmlns="http://www.w3.org/2000/svg" width="90" height="93" viewBox="0 0 90 93" fill="none">
  <path fill-rule="evenodd" clip-rule="evenodd" d="M0.275879 10.2671C0.275879 15.9225 4.86048 20.5071 10.5159 20.5071H35.1405C36.0831 20.5071 36.8473 21.2713 36.8472 22.2139L36.8429 81.9899V82.2949H36.8473C37.0086 87.8092 41.5295 92.2299 47.0829 92.2299C52.6362 92.2299 57.1571 87.8092 57.3184 82.2949H57.3229V81.9899L57.3273 20.5071V6.85377C57.3273 3.0835 54.2709 0.0270996 50.5006 0.0270996H36.8473H10.5159C4.86048 0.0270996 0.275879 4.6117 0.275879 10.2671Z" fill="#FF7201"/>
  <path d="M79.4285 0.0270801C85.0839 0.0270798 89.6685 4.61168 89.6685 10.2671C89.6685 15.9225 85.0839 20.5071 79.4285 20.5071C73.7731 20.5071 69.1885 15.9225 69.1885 10.2671C69.1885 4.61168 73.7731 0.0270803 79.4285 0.0270801Z" fill="#FF7201"/>
</svg>