<svg xmlns="http://www.w3.org/2000/svg" width="93" height="94" viewBox="0 0 93 94" fill="none">
  <path fill-rule="evenodd" clip-rule="evenodd" d="M92.4818 11.2056L92.4818 11.2133L92.4818 11.2209L92.4807 62.5094V62.8149H92.4763C92.315 68.3292 87.7941 72.7499 82.2407 72.7499C76.6874 72.7499 72.1665 68.3292 72.0052 62.8149H72.0007V62.5129L72.0007 62.5099L72.0007 62.5069L72.0018 11.2133L72.0018 10.9033H72.0064C72.1703 5.39128 76.6901 0.973267 82.2418 0.973267C87.7935 0.973267 92.3133 5.39128 92.4772 10.9033H92.4818V11.2056Z" fill="black"/>
  <path fill-rule="evenodd" clip-rule="evenodd" d="M72.001 82.99C72.001 77.3346 67.4164 72.75 61.761 72.75H22.5076C21.5651 72.75 20.801 71.9859 20.801 71.0434V11.615V11.31H20.7965C20.6352 5.79572 16.1143 1.37504 10.561 1.37504C5.00759 1.37504 0.486725 5.79572 0.325424 11.31H0.320969V11.615V72.75V86.4034C0.320969 90.1736 3.37737 93.23 7.14764 93.23H20.801H61.761C67.4164 93.23 72.001 88.6454 72.001 82.99Z" fill="black"/>
</svg>