<svg xmlns="http://www.w3.org/2000/svg" width="102" height="174" viewBox="0 0 102 174" fill="none">
  <path fill-rule="evenodd" clip-rule="evenodd" d="M7.81109 130.19C11.8101 134.189 18.2937 134.189 22.2926 130.19L50.0489 102.433C50.7154 101.767 51.796 101.767 52.4625 102.433L80.0032 129.974L80.2188 130.19L80.222 130.186C84.2352 133.972 90.5579 133.901 94.4847 129.974C98.4115 126.047 98.4824 119.724 94.6972 115.711L94.7004 115.708L94.4847 115.492L65.7373 86.745L56.0829 77.0906C53.4169 74.4246 49.0945 74.4246 46.4285 77.0906L36.7742 86.745L7.81109 115.708C3.81212 119.707 3.81212 126.191 7.81109 130.19Z" fill="#FF7201"/>
  <path fill-rule="evenodd" clip-rule="evenodd" d="M7.70342 43.8103C11.7024 39.8113 18.186 39.8113 22.185 43.8103L49.9413 71.5666C50.6078 72.2331 51.6884 72.2331 52.3549 71.5666L79.8955 44.0259L80.1112 43.8103L80.1143 43.8134C84.1276 40.0283 90.4502 40.0991 94.377 44.0259C98.3039 47.9528 98.3747 54.2754 94.5896 58.2887L94.5927 58.2918L94.377 58.5075L65.6296 87.2549L55.9752 96.9093C53.3093 99.5752 48.9869 99.5752 46.3209 96.9093L36.6665 87.2549L7.70342 58.2918C3.70445 54.2928 3.70445 47.8092 7.70342 43.8103Z" fill="#FF7201"/>
</svg>